<svg xmlns="http://www.w3.org/2000/svg" width="60" height="32" viewBox="0 0 60 32" fill="none">
  <g clip-path="url(#clip0_5738_1100)">
    <path fill-rule="evenodd" clip-rule="evenodd" d="M8.2473 -9.48431e-05C5.70546 -9.48431e-05 3.6394 2.05145 3.6394 4.57128C3.6394 7.09297 5.70734 9.14451 8.2473 9.14451H8.93473C10.7929 9.14451 12.3064 10.6441 12.3064 12.4894V27.4281C12.3064 29.9498 14.3743 31.9995 16.9255 31.9995C19.3306 31.9995 21.3086 30.1617 21.5147 27.8258C21.7919 27.6381 21.9736 27.3222 21.9736 26.9654C21.9736 26.3894 21.5034 25.9211 20.9209 25.9211C20.3402 25.9211 19.87 26.3894 19.87 26.9654C19.87 27.2999 20.0311 27.5935 20.2784 27.7849C20.0986 29.4611 18.6638 30.7731 16.9161 30.7731C15.058 30.7731 13.5445 29.2734 13.5445 27.4281V12.4894C13.5445 9.96773 11.4766 7.91804 8.93473 7.91804H8.2473C6.38728 7.91804 4.87567 6.41841 4.87567 4.57314C4.87567 2.72972 6.38915 1.22823 8.2473 1.22823H25.5718C27.43 1.22823 28.9435 2.72972 28.9435 4.57314C28.9435 6.41841 27.4319 7.91804 25.5718 7.91804H24.905C22.3632 7.91804 20.2971 9.96959 20.2971 12.4894V20.7439L20.3009 21.7622C20.3009 22.4907 19.7033 23.0835 18.9691 23.0835C18.2348 23.0835 17.6392 22.4907 17.6392 21.7622V11.3299L17.6541 8.5034C17.6541 5.98171 15.5862 3.93203 13.0444 3.93203H10.4276C10.2366 3.67187 9.92936 3.50277 9.58096 3.50277C9.00029 3.50277 8.53014 3.9692 8.53014 4.54526C8.53014 5.12133 9.00029 5.58776 9.58096 5.58776C9.92936 5.58776 10.2366 5.4168 10.4276 5.1585H13.0444C14.9044 5.1585 16.416 6.65813 16.416 8.49969L16.401 11.3261V21.7622C16.401 23.1671 17.553 24.3099 18.9691 24.3099C20.3852 24.3099 21.5371 23.1671 21.5371 21.7604L21.5353 12.4876C21.5353 10.6441 23.0469 9.14265 24.9069 9.14265H25.5737C28.1156 9.14265 30.1816 7.09111 30.1816 4.56942C30.1816 2.04773 28.1137 -0.00195312 25.5737 -0.00195312H8.24917L8.2473 -9.48431e-05Z" fill="url(#paint0_linear_5738_1100)"/>
    <path d="M25.7162 28.723L26.7989 28.0782C27.5613 29.4756 28.4435 30.1743 29.4438 30.1743C29.8727 30.1743 30.2754 30.074 30.65 29.877C31.0265 29.68 31.3131 29.4124 31.5079 29.0817C31.7065 28.7509 31.8039 28.3978 31.8039 28.0243C31.8039 27.6025 31.6597 27.1881 31.3693 26.7793C30.9704 26.2181 30.2417 25.5416 29.1796 24.7519C28.1138 23.9528 27.4526 23.3786 27.1923 23.0237C26.739 22.4272 26.5142 21.7823 26.5142 21.0892C26.5142 20.541 26.6472 20.0393 26.9132 19.5859C27.1791 19.1343 27.5556 18.7794 28.0408 18.5173C28.5259 18.2553 29.0504 18.1271 29.618 18.1271C30.2211 18.1271 30.7868 18.2739 31.3094 18.5694C31.8339 18.863 32.3883 19.4056 32.9746 20.1954L31.9331 20.9796C31.4517 20.3477 31.0397 19.9315 30.6987 19.7327C30.3578 19.5301 29.9888 19.4298 29.5899 19.4298C29.0729 19.4298 28.6495 19.5859 28.3199 19.8943C27.9921 20.2047 27.8254 20.5837 27.8254 21.039C27.8254 21.3122 27.8853 21.5798 27.9996 21.8381C28.1157 22.0964 28.3274 22.3751 28.6364 22.6799C28.8013 22.8378 29.3557 23.2615 30.2904 23.9417C31.3974 24.7519 32.1579 25.471 32.5681 26.0991C32.9802 26.7309 33.1863 27.3646 33.1863 28.0002C33.1863 28.9163 32.8341 29.7135 32.1336 30.3899C31.4293 31.0682 30.5751 31.4045 29.5693 31.4045C28.7938 31.4045 28.0895 31.1983 27.4601 30.7876C26.8307 30.3769 26.2482 29.6875 25.7144 28.7212L25.7162 28.723ZM35.6738 18.129H36.8801V25.5193L41.2819 21.7396H43.0389L37.8503 26.1939L43.3405 31.0886H41.6209L36.8782 26.8592V31.0886H35.6719V18.129H35.6738ZM45.0076 17.9004C45.2829 17.9004 45.5171 17.997 45.7119 18.194C45.9067 18.3873 46.0041 18.6251 46.0041 18.8983C46.0041 19.1677 45.9067 19.4037 45.7119 19.597C45.5171 19.794 45.2829 19.8906 45.0076 19.8906C44.736 19.8906 44.5056 19.794 44.3089 19.597C44.1141 19.4037 44.0167 19.1677 44.0167 18.8983C44.0167 18.6251 44.1141 18.3873 44.3089 18.194C44.5037 17.997 44.7341 17.9004 45.0076 17.9004ZM44.4063 21.7396H45.6126V31.0905H44.4063V21.7396ZM47.9596 18.129H49.1659V31.0886H47.9596V18.129ZM51.5129 18.129H52.7192V31.0886H51.5129V18.129ZM60.0001 22.7375L59.219 23.5366C58.5709 22.914 57.9359 22.6037 57.3178 22.6037C56.9244 22.6037 56.5872 22.7319 56.3063 22.9902C56.0253 23.2485 55.8829 23.5514 55.8829 23.8971C55.8829 24.2018 55.9991 24.4936 56.2295 24.7686C56.4599 25.0511 56.9487 25.3781 57.6886 25.7572C58.5877 26.2236 59.2002 26.6733 59.5262 27.1045C59.8427 27.5412 60.0019 28.0317 60.0019 28.5781C60.0019 29.3474 59.7303 30.0015 59.1853 30.5349C58.6402 31.0682 57.9602 31.3358 57.1436 31.3358C56.5985 31.3358 56.0815 31.2187 55.5851 30.9827C55.0906 30.7486 54.6823 30.4252 54.3582 30.0108L55.1206 29.1504C55.7387 29.8436 56.398 30.1892 57.093 30.1892C57.5781 30.1892 57.9921 30.0331 58.3349 29.7228C58.6758 29.4124 58.8462 29.0482 58.8462 28.6283C58.8462 28.2826 58.7338 27.9741 58.5091 27.7047C58.2805 27.4408 57.7729 27.1063 56.9787 26.7031C56.1264 26.2682 55.5477 25.8371 55.2423 25.4153C54.9351 24.9935 54.7815 24.5084 54.7815 23.9658C54.7815 23.256 55.0269 22.665 55.5158 22.1967C56.0066 21.7266 56.6247 21.4925 57.3739 21.4925C58.2431 21.4925 59.1197 21.9068 60.0001 22.7375Z" fill="white"/>
    <path fill-rule="evenodd" clip-rule="evenodd" d="M7.95892 12.8964C7.95892 12.2163 8.51898 11.6607 9.20455 11.6607C9.89011 11.6607 10.4502 12.2163 10.4502 12.8964C10.4446 13.3461 10.2179 13.7364 9.82642 13.9668V30.0335C9.81518 31.0296 9.03034 31.81 8.02635 31.8193H5.69993C4.69593 31.8082 3.90922 31.0296 3.89985 30.0335V15.3382C3.89985 15.0353 3.65072 14.7882 3.3454 14.7882H1.80007C0.796079 14.777 0.00936563 13.9984 0 13.0024V12.194C0.0112388 11.198 0.796079 10.4175 1.80007 10.4082H5.74113C6.74513 10.4194 7.53184 11.198 7.54121 12.194V27.1365C7.91209 27.3502 8.16496 27.7497 8.16496 28.2068C8.16496 28.887 7.6049 29.4426 6.91933 29.4426C6.23377 29.4426 5.6737 28.887 5.6737 28.2068C5.6737 27.7516 5.9247 27.352 6.29745 27.1365V12.194C6.29745 11.8911 6.04833 11.644 5.74301 11.644H1.80195C1.49663 11.644 1.2475 11.8911 1.2475 12.194V13.0024C1.2475 13.3053 1.49663 13.5524 1.80195 13.5524H3.34728C4.35127 13.5636 5.13799 14.3422 5.14735 15.3382V30.0335C5.14735 30.3364 5.39648 30.5836 5.7018 30.5836H8.02822C8.33354 30.5836 8.58267 30.3364 8.58267 30.0335V13.9668C8.19306 13.7382 7.96454 13.3461 7.95892 12.8964Z" fill="url(#paint1_linear_5738_1100)"/>
  </g>
  <defs>
    <linearGradient id="paint0_linear_5738_1100" x1="16.7083" y1="-0.00195313" x2="16.7083" y2="42.9953" gradientUnits="userSpaceOnUse">
      <stop stop-color="#A3F5B7"/>
      <stop offset="1" stop-color="#41AAD2"/>
    </linearGradient>
    <linearGradient id="paint1_linear_5738_1100" x1="5.14548" y1="10.4082" x2="5.14548" y2="39.1763" gradientUnits="userSpaceOnUse">
      <stop stop-color="#A3F5B7"/>
      <stop offset="1" stop-color="#41AAD2"/>
    </linearGradient>
    <clipPath id="clip0_5738_1100">
      <rect width="60" height="32" fill="white"/>
    </clipPath>
  </defs>
</svg>