<svg width="48" height="48" viewBox="0 0 48 48" fill="none" xmlns="http://www.w3.org/2000/svg">
<g clip-path="url(#clip0_6767_1842)">
<path d="M20.6925 3.30774L17.4657 6.53463L17.4414 10.1891L17.4092 13.8355L17.9013 13.9888C18.1756 14.0694 18.587 14.2711 18.8209 14.4405L19.2404 14.7471L19.6035 14.4809C20.0794 14.142 22.4028 12.456 26.4606 9.51951C28.2596 8.22068 29.8811 7.04287 30.0747 6.90573C30.2603 6.77665 30.4135 6.64757 30.4135 6.62337C30.4135 6.5911 28.9534 5.1148 27.1625 3.32388L23.9194 0.0808516L20.6925 3.30774Z" fill="white"/>
<path d="M9.6807 9.01097C10.7214 10.0597 12.3671 11.7054 13.3352 12.6654L15.0857 14.416L15.5456 14.1821C15.7957 14.0611 16.0619 13.9562 16.1425 13.9562C16.2232 13.9562 16.3281 13.8836 16.3765 13.8029C16.4249 13.698 16.4572 12.4718 16.4572 10.3743V7.09904H12.1251H7.79297L9.6807 9.01097Z" fill="white"/>
<path d="M29.1225 8.84169C27.8156 9.80169 26.307 10.8908 25.7746 11.278C23.0478 13.2303 20.1114 15.3681 19.9904 15.481C19.8613 15.602 19.8613 15.6343 19.9904 16.0296L20.1275 16.4572H30.4778H40.8199V11.7782V7.09917L36.1652 7.10724H31.5023L29.1225 8.84169Z" fill="white"/>
<path d="M7.01855 12.1249V16.457L10.4149 16.4409L13.8192 16.4167L13.916 16.0779C13.9725 15.8923 14.1016 15.61 14.1984 15.4486L14.3839 15.1501L10.6972 11.4634L7.01855 7.78476V12.1249Z" fill="white"/>
<path d="M3.24303 20.7568L0 23.9998L3.29143 27.2912L6.58286 30.5826L7.7042 29.0257C8.31731 28.1705 9.31765 26.7749 9.93076 25.9359C10.5358 25.0889 11.8508 23.2657 12.8511 21.8781L14.6743 19.3531L14.4 18.9497C14.158 18.5947 13.795 17.78 13.795 17.5863C13.795 17.5379 12.4316 17.5057 10.1405 17.5057H6.49412L3.24303 20.7568Z" fill="white"/>
<path d="M20.1359 17.6024C20.0311 17.9574 19.8052 18.5382 19.7003 18.6995C19.5551 18.9254 18.6838 18.03 31.1558 30.5342L40.8122 40.2148L40.8203 35.6165V31.0182L44.3295 27.509L47.8388 23.9997L44.5958 20.7567L41.3447 17.5056H30.7524C22.3544 17.5056 20.1601 17.5298 20.1359 17.6024Z" fill="white"/>
<path d="M18.4335 19.8616C18.256 19.9584 17.9656 20.0794 17.7881 20.1278L17.4654 20.2246L17.4251 30.7846L17.3848 41.3446L20.652 44.6361L23.9192 47.9194L27.4285 44.4102L30.9377 40.9009L35.4796 40.8848L40.0214 40.8606L29.4856 30.2683C23.6853 24.4519 18.9014 19.6841 18.8449 19.6841C18.7965 19.6922 18.611 19.7648 18.4335 19.8616Z" fill="white"/>
<path d="M14.634 21.1518C14.1419 21.8295 12.835 23.6365 11.7379 25.1693C10.6327 26.7021 9.1241 28.7996 8.37385 29.8322L7.01855 31.7118V36.3021V40.9004H11.6975H16.3765V33.4947C16.3765 29.4288 16.4007 24.774 16.433 23.1525L16.4814 20.208L16.1265 20.1192C15.9328 20.0708 15.715 20.0063 15.6505 19.974C15.5537 19.9337 15.2955 20.2402 14.634 21.1518Z" fill="white"/>
</g>
<defs>
<clipPath id="clip0_6767_1842">
<rect width="47.9193" height="48" fill="white"/>
</clipPath>
</defs>
</svg>
