<svg width="65" height="20" viewBox="0 0 65 20" fill="none" xmlns="http://www.w3.org/2000/svg">
<g id="One_ID 1" clip-path="url(#clip0_288_2285)">
<path id="Vector" d="M56.4789 -0.00113462H45.9208C40.4556 -0.114784 39.25 3.53677 39.25 6.44278V13.4708C39.25 19.4272 42.9378 19.9966 45.8226 19.9966H57C62.7369 19.9966 64.5955 18.6794 64.5865 13.322V6.61666C64.5842 1.91158 62.7121 -0.00113462 56.4789 -0.00113462ZM47.7545 15.6529H44.7862V4.56302H47.7545V15.6529ZM54.2008 15.6529C54.1704 15.6529 54.1422 15.6529 54.1117 15.6529H49.6492V4.56302H54.2008C55.6602 4.56302 57.0597 5.14722 58.0916 6.1871C59.1235 7.22698 59.7032 8.63736 59.7032 10.108C59.7032 11.5786 59.1235 12.989 58.0916 14.0288C57.0597 15.0687 55.6602 15.6529 54.2008 15.6529Z" fill="white"/>
<path id="Vector_2" d="M55.7389 10.7353C55.3746 10.5455 55.5043 10.2648 55.669 10.0693C55.7361 9.98824 55.8117 9.9147 55.8945 9.84999C56.2008 9.49199 56.3672 9.03385 56.3626 8.56121C56.3626 7.54973 55.6363 6.73032 54.7397 6.73032C53.8431 6.73032 53.1169 7.54973 53.1169 8.56121C53.1136 8.82906 53.1661 9.09462 53.2707 9.34084C53.3754 9.58706 53.5301 9.80849 53.7247 9.99091L53.7337 9.99773C53.7503 10.0112 53.7662 10.0256 53.7811 10.0409C53.8691 10.1239 54.0168 10.3114 53.8736 10.5148C53.7304 10.7183 53.1518 10.9808 52.8236 11.1217C52.7176 11.1672 52.6375 11.2001 52.6071 11.2104H52.5947C52.0432 11.4809 51.6699 11.9934 51.6699 12.5821C51.6699 12.5992 51.6699 12.6162 51.6699 12.6333V13.4947H54.9686C54.9686 13.4947 56.6445 12.9924 57.3088 11.8366C57.4227 11.6695 56.7246 11.0854 55.7389 10.7353Z" fill="white"/>
<path id="Vector_3" d="M53.7802 10.2614C53.7597 10.2421 53.7427 10.2273 53.7324 10.2193C53.7483 10.2353 53.7642 10.2478 53.7802 10.2614Z" fill="white"/>
<path id="Vector_4" d="M55.6582 10.2932C55.7402 10.228 55.8157 10.1549 55.8838 10.075C55.8009 10.1392 55.7252 10.2124 55.6582 10.2932Z" fill="white"/>
<path id="Vector_5" d="M5.98381 4.24707C4.32223 4.24707 2.97906 4.7941 1.95429 5.88817C0.929526 6.98223 0.416767 8.36155 0.416016 10.0261C0.416016 11.693 0.928774 13.0723 1.95429 14.1641C2.97981 15.2559 4.32298 15.8029 5.98381 15.8052C7.63336 15.8052 8.97353 15.2582 10.0043 14.1641C11.0351 13.07 11.5509 11.6907 11.5516 10.0261C11.5516 8.35928 11.0358 6.97996 10.0043 5.88817C8.97277 4.79638 7.63261 4.24934 5.98381 4.24707ZM9.26787 13.5527C8.43182 14.4732 7.33789 14.9335 5.98607 14.9335C4.61169 14.9335 3.51212 14.4732 2.68734 13.5527C1.86257 12.6321 1.44905 11.4577 1.4468 10.0295C1.4468 8.58999 1.86031 7.41182 2.68734 6.49505C3.51437 5.57828 4.6132 5.11762 5.98381 5.11308C7.34766 5.11308 8.4446 5.57108 9.27464 6.4871C10.1047 7.40311 10.5182 8.58127 10.5152 10.0216C10.5182 11.4543 10.1024 12.6314 9.26787 13.5527Z" fill="white"/>
<path id="Vector_6" d="M22.5927 13.9152L15.2182 4.5471H14.1953V15.6063H15.2002V6.10524L22.6107 15.6063H23.5975V4.5471H22.5927V13.9152Z" fill="white"/>
<path id="Vector_7" d="M27.5626 10.3671H33.5782V9.50449H27.5626V5.40857H34.2097V4.5471H26.5273V15.6063H34.3146V14.7437H27.5626V10.3671Z" fill="white"/>
</g>
<defs>
<clipPath id="clip0_288_2285">
<rect width="64.1667" height="20" fill="white" transform="translate(0.416016)"/>
</clipPath>
</defs>
</svg>
