<svg width="21" height="20" viewBox="0 0 21 20" fill="none" xmlns="http://www.w3.org/2000/svg">
<g clip-path="url(#clip0_5592_4346)">
<path d="M16.7498 11.25C16.7513 11.5048 16.6739 11.7539 16.5281 11.9629C16.3824 12.1719 16.1754 12.3306 15.9357 12.4172L11.9005 13.9016L10.4162 17.9336C10.3283 18.1724 10.1692 18.3785 9.96051 18.5241C9.75179 18.6697 9.50345 18.7477 9.24898 18.7477C8.99451 18.7477 8.74616 18.6697 8.53745 18.5241C8.32873 18.3785 8.16969 18.1724 8.08179 17.9336L6.59351 13.9062L2.5607 12.4219C2.32189 12.334 2.11579 12.1749 1.97022 11.9662C1.82464 11.7575 1.74658 11.5092 1.74658 11.2547C1.74658 11.0002 1.82464 10.7519 1.97022 10.5432C2.11579 10.3344 2.32189 10.1754 2.5607 10.0875L6.59585 8.60313L8.08023 4.57109C8.16813 4.33229 8.32717 4.12619 8.53588 3.98061C8.7446 3.83504 8.99294 3.75698 9.24741 3.75698C9.50188 3.75698 9.75023 3.83504 9.95895 3.98061C10.1677 4.12619 10.3267 4.33229 10.4146 4.57109L11.899 8.60625L15.931 10.0906C16.1703 10.176 16.3774 10.3331 16.524 10.5407C16.6705 10.7482 16.7494 10.9959 16.7498 11.25ZM12.3748 3.75H13.6248V5C13.6248 5.16576 13.6906 5.32473 13.8078 5.44194C13.925 5.55915 14.084 5.625 14.2498 5.625C14.4155 5.625 14.5745 5.55915 14.6917 5.44194C14.8089 5.32473 14.8748 5.16576 14.8748 5V3.75H16.1248C16.2905 3.75 16.4495 3.68415 16.5667 3.56694C16.6839 3.44973 16.7498 3.29076 16.7498 3.125C16.7498 2.95924 16.6839 2.80027 16.5667 2.68306C16.4495 2.56585 16.2905 2.5 16.1248 2.5H14.8748V1.25C14.8748 1.08424 14.8089 0.925268 14.6917 0.808058C14.5745 0.690848 14.4155 0.625 14.2498 0.625C14.084 0.625 13.925 0.690848 13.8078 0.808058C13.6906 0.925268 13.6248 1.08424 13.6248 1.25V2.5H12.3748C12.209 2.5 12.05 2.56585 11.9328 2.68306C11.8156 2.80027 11.7498 2.95924 11.7498 3.125C11.7498 3.29076 11.8156 3.44973 11.9328 3.56694C12.05 3.68415 12.209 3.75 12.3748 3.75ZM19.2498 6.25H18.6248V5.625C18.6248 5.45924 18.5589 5.30027 18.4417 5.18306C18.3245 5.06585 18.1655 5 17.9998 5C17.834 5 17.675 5.06585 17.5578 5.18306C17.4406 5.30027 17.3748 5.45924 17.3748 5.625V6.25H16.7498C16.584 6.25 16.425 6.31585 16.3078 6.43306C16.1906 6.55027 16.1248 6.70924 16.1248 6.875C16.1248 7.04076 16.1906 7.19973 16.3078 7.31694C16.425 7.43415 16.584 7.5 16.7498 7.5H17.3748V8.125C17.3748 8.29076 17.4406 8.44973 17.5578 8.56694C17.675 8.68415 17.834 8.75 17.9998 8.75C18.1655 8.75 18.3245 8.68415 18.4417 8.56694C18.5589 8.44973 18.6248 8.29076 18.6248 8.125V7.5H19.2498C19.4155 7.5 19.5745 7.43415 19.6917 7.31694C19.8089 7.19973 19.8748 7.04076 19.8748 6.875C19.8748 6.70924 19.8089 6.55027 19.6917 6.43306C19.5745 6.31585 19.4155 6.25 19.2498 6.25Z" fill="#23CE70"/>
</g>
<defs>
<clipPath id="clip0_5592_4346">
<rect width="20" height="20" fill="white" transform="translate(0.5)"/>
</clipPath>
</defs>
</svg>
