<svg xmlns="http://www.w3.org/2000/svg" width="184" height="204" viewBox="0 0 184 204" fill="none">
  <path d="M76 5.2376C85.9008 -0.478648 98.0992 -0.478645 108 5.2376L167.799 39.7624C177.7 45.4786 183.799 56.0427 183.799 67.4752V136.525C183.799 147.957 177.7 158.521 167.799 164.238L108 198.762C98.0992 204.479 85.9008 204.479 76 198.762L16.2013 164.238C6.30047 158.521 0.201309 147.957 0.201309 136.525V67.4752C0.201309 56.0427 6.30047 45.4786 16.2013 39.7624L76 5.2376Z" fill="#324ECF"/>
  <path d="M76 5.2376C85.9008 -0.478648 98.0992 -0.478645 108 5.2376L167.799 39.7624C177.7 45.4786 183.799 56.0427 183.799 67.4752V136.525C183.799 147.957 177.7 158.521 167.799 164.238L108 198.762C98.0992 204.479 85.9008 204.479 76 198.762L16.2013 164.238C6.30047 158.521 0.201309 147.957 0.201309 136.525V67.4752C0.201309 56.0427 6.30047 45.4786 16.2013 39.7624L76 5.2376Z" fill="white" fill-opacity="0.1"/>
  <path d="M76.25 5.67061C85.9961 0.0436807 98.0039 0.0436835 107.75 5.67062L167.549 40.1954C177.295 45.8223 183.299 56.2213 183.299 67.4752V136.525C183.299 147.779 177.295 158.178 167.549 163.805L107.75 198.329C98.0039 203.956 85.9961 203.956 76.25 198.329L16.4513 163.805C6.70517 158.178 0.701309 147.779 0.701309 136.525V67.4752C0.701309 56.2213 6.70518 45.8223 16.4513 40.1954L76.25 5.67061Z" stroke="white" stroke-opacity="0.1"/>
</svg>