<svg width="302" height="50" viewBox="0 0 302 50" fill="none" xmlns="http://www.w3.org/2000/svg">
<g clip-path="url(#clip0_42_9817)">
<path fill-rule="evenodd" clip-rule="evenodd" d="M14.402 27.3407L22.2763 39.4656C22.5496 39.9084 22.9081 40.2925 23.3311 40.5957C23.7541 40.8988 24.233 41.1149 24.7402 41.2315C25.2473 41.3481 25.7726 41.3627 26.2855 41.2747C26.7983 41.1866 27.2886 40.9976 27.7279 40.7185C28.1671 40.4395 28.5465 40.076 28.8441 39.6491C29.1418 39.2222 29.3517 38.7405 29.4616 38.2319C29.5716 37.7233 29.5794 37.1979 29.4847 36.6862C29.39 36.1745 29.1946 35.6867 28.9099 35.2511L19.444 20.6753C19.3136 20.4741 19.1652 20.2851 19.0006 20.1106L28.4535 5.23438L51.7153 41.8342C52.2068 42.5754 52.505 43.4279 52.5827 44.3138C52.6604 45.1998 52.5151 46.0911 52.1602 46.9066C51.743 47.8277 51.0696 48.6092 50.2204 49.1581C49.3712 49.7069 48.382 49.9997 47.3709 50.0017H-0.00195312L14.402 27.3407Z" fill="white"/>
<path fill-rule="evenodd" clip-rule="evenodd" d="M56.9803 39.6357L31.7875 0L29.582 3.4663L53.3508 40.8562C53.5906 41.2208 53.7947 41.6078 53.9603 42.0116C54.3258 42.8928 54.5122 43.8379 54.5085 44.7919C54.5047 45.7459 54.311 46.6895 53.9386 47.5678L54.6896 47.2342C54.9249 47.1289 55.1523 47.0068 55.3699 46.8688C55.9506 46.5 56.4529 46.0204 56.8482 45.4574C57.2434 44.8944 57.5239 44.259 57.6736 43.5876C57.8233 42.9162 57.8392 42.2219 57.7205 41.5443C57.6018 40.8667 57.3508 40.2192 56.9817 39.6386" fill="white"/>
<path fill-rule="evenodd" clip-rule="evenodd" d="M11.4532 18.048C12.1643 17.5846 12.9968 17.3427 13.8455 17.3528C14.6942 17.363 15.5207 17.6247 16.2205 18.1049C16.9203 18.5852 17.4619 19.2622 17.7766 20.0505C18.0914 20.8387 18.1651 21.7025 17.9886 22.5327C17.812 23.3629 17.3931 24.122 16.7848 24.7139C16.1766 25.3058 15.4063 25.7038 14.5717 25.8577C13.737 26.0116 12.8755 25.9143 12.0961 25.5782C11.3168 25.2421 10.6547 24.6822 10.1938 23.9696C9.57859 23.0165 9.36574 21.8586 9.60174 20.749C9.83773 19.6394 10.5034 18.6683 11.4532 18.048Z" fill="white"/>
<path d="M82.871 13.8955V27.9571C82.7878 29.5812 83.2633 31.1848 84.2185 32.5009C85.4178 33.5985 86.9856 34.2056 88.6114 34.2021C90.2371 34.1987 91.8023 33.5848 92.9969 32.4821C93.9817 31.1855 94.4787 29.5835 94.4008 27.9571V13.8955H98.1444V28.3312C98.246 29.5932 98.0856 30.8625 97.6732 32.0595C97.2609 33.2565 96.6055 34.3553 95.7483 35.2869C93.6737 36.7733 91.1849 37.571 88.6328 37.5676C86.0808 37.5642 83.5941 36.76 81.5234 35.2682C80.6587 34.3449 79.9958 33.2516 79.5768 32.0581C79.1578 30.8645 78.9919 29.5967 79.0898 28.3356V13.8955H82.871Z" fill="white"/>
<path d="M102.824 12.9985L117.5 27.0963C117.624 27.2219 117.737 27.3404 117.836 27.4516C117.936 27.5628 118.049 27.6827 118.173 27.8069C118.323 27.9571 118.467 28.1131 118.606 28.2748C118.75 28.4366 118.895 28.6056 119.039 28.7789C119.213 28.9536 119.382 29.1414 119.543 29.3407C119.705 29.54 119.874 29.7393 120.049 29.9387V13.8954H123.492V37.9039L108.515 23.5448C108.096 23.152 107.702 22.7333 107.336 22.2911C106.973 21.8549 106.617 21.4 106.269 20.9263V37.0431H102.824V12.9985Z" fill="white"/>
<path d="M128.355 13.8955H132.137V37.0432H128.355V13.8955Z" fill="white"/>
<path d="M152.277 17.5424C151.097 17.0802 149.839 16.8454 148.571 16.8506C148.271 16.8506 147.966 16.8636 147.654 16.8881C147.342 16.9127 147.01 16.9502 146.662 16.9993C145.694 17.141 144.766 17.4776 143.932 17.9888C143.099 18.5 142.378 19.1751 141.813 19.9731C140.716 21.4716 140.085 23.2598 139.998 25.1148V25.9814C140.103 27.6941 140.665 29.3473 141.626 30.7692C142.623 32.273 144.133 33.3628 145.875 33.8355C146.074 33.886 146.275 33.9279 146.474 33.9655C146.673 34.003 146.886 34.0478 147.111 34.0969L147.71 34.172C147.909 34.1967 148.108 34.2093 148.308 34.2095C149.648 34.2095 150.971 33.9136 152.183 33.343C153.418 32.7707 154.582 32.0552 155.65 31.2112V35.4747C154.907 35.9702 154.11 36.3779 153.274 36.6894C152.455 36.9976 151.608 37.2292 150.746 37.3812C150.347 37.4322 149.948 37.4761 149.549 37.5126C149.15 37.5492 148.765 37.568 148.394 37.569C145.435 37.5733 142.565 36.5561 140.269 34.6891C139.051 33.7237 138.052 32.5116 137.335 31.1323C136.619 29.753 136.203 28.2378 136.114 26.6862V26.0883C136.088 26.0037 136.075 25.9154 136.077 25.8269V25.5279C136.055 23.112 136.764 20.746 138.11 18.7397C139.072 17.2556 140.36 16.0107 141.876 15.0998C143.392 14.189 145.096 13.6363 146.858 13.4839C146.934 13.4841 147.009 13.4779 147.084 13.4652C147.145 13.4537 147.207 13.4474 147.27 13.4464C147.488 13.422 147.707 13.4095 147.926 13.4088H148.503C149.789 13.4026 151.067 13.611 152.285 14.0255C153.534 14.4606 154.728 15.0424 155.84 15.7587L155.653 19.5355C154.637 18.7006 153.499 18.0282 152.277 17.5424Z" fill="white"/>
<path d="M178.875 35.6234C176.82 36.8895 174.455 37.5624 172.042 37.5674C171.842 37.5674 171.649 37.5674 171.464 37.5486C171.279 37.5299 171.083 37.5169 170.886 37.4923C170.089 37.4169 169.3 37.2719 168.528 37.059C167.75 36.8465 166.997 36.5521 166.282 36.1809C164.288 35.1335 162.622 33.5543 161.471 31.6184C160.331 29.7475 159.729 27.5987 159.73 25.4079C159.731 25.0581 159.749 24.7086 159.787 24.3608C159.906 23.387 160.125 22.4282 160.441 21.4996C160.659 20.9085 160.909 20.3299 161.191 19.7665C162.258 17.7797 163.876 16.1436 165.851 15.0552C167.765 13.9769 169.925 13.4103 172.121 13.4102C172.496 13.4102 172.881 13.4289 173.277 13.4665C173.664 13.5016 174.05 13.5575 174.432 13.634C175.235 13.7853 176.024 14.0042 176.79 14.2883C177.553 14.5709 178.28 14.9412 178.957 15.3917C180.668 16.5015 182.056 18.0429 182.981 19.8604C183.923 21.6406 184.419 23.6232 184.425 25.6375C184.426 26.4038 184.35 27.1682 184.2 27.9195C184.05 28.6711 183.837 29.4088 183.564 30.125C182.65 32.4248 181.001 34.358 178.875 35.6234ZM177.251 32.3636C178.278 31.5448 179.108 30.5047 179.677 29.3209C180.246 28.137 180.541 26.84 180.54 25.5263C180.552 24.3957 180.338 23.274 179.911 22.2272C179.483 21.1803 178.851 20.2293 178.051 19.43C177.286 18.6035 176.355 17.9468 175.32 17.5025C174.285 17.0581 173.168 16.836 172.042 16.8505H171.256C170.191 16.9492 169.157 17.2637 168.218 17.7747C167.278 18.2857 166.452 18.9825 165.791 19.8228C164.398 21.4403 163.629 23.5028 163.624 25.6375C163.624 25.7625 163.63 25.8873 163.643 26.0116C163.656 26.1373 163.675 26.2615 163.699 26.3857C163.699 26.455 163.705 26.5242 163.718 26.5922C163.731 26.6598 163.738 26.7285 163.737 26.7973C163.759 26.8651 163.778 26.934 163.793 27.0039C163.805 27.0589 163.812 27.115 163.812 27.1714C164.196 29.1154 165.241 30.8665 166.77 32.1268C167.751 32.9785 168.919 33.5865 170.179 33.9013C171.439 34.216 172.756 34.2285 174.022 33.9379C175.217 33.7023 176.33 33.1597 177.251 32.3636Z" fill="white"/>
<path d="M189.039 12.9985L203.715 27.0963C203.839 27.2219 203.951 27.3404 204.051 27.4516C204.151 27.5628 204.262 27.6827 204.388 27.8069C204.538 27.9571 204.682 28.1131 204.821 28.2748C204.965 28.4366 205.101 28.6056 205.254 28.7789C205.429 28.9536 205.596 29.1414 205.76 29.3407C205.923 29.54 206.09 29.7393 206.265 29.9387V13.8954H209.71V37.9039L194.735 23.5448C194.316 23.152 193.922 22.7333 193.555 22.2911C193.192 21.8549 192.837 21.4 192.488 20.9263V37.0431H189.045L189.039 12.9985Z" fill="white"/>
<path d="M224.284 30.9625C224.49 31.7001 224.868 32.3779 225.389 32.9397C225.934 33.5045 226.651 33.8723 227.428 33.9854L227.572 34.0215C227.622 34.029 227.67 34.0416 227.717 34.0591C227.861 34.0836 228.022 34.1096 228.185 34.1342C228.352 34.1594 228.521 34.172 228.69 34.1717H228.952C229.041 34.1731 229.13 34.1604 229.215 34.1342C229.717 34.0841 230.206 33.9453 230.659 33.724C231.103 33.5157 231.484 33.1939 231.764 32.791C231.893 32.5585 232.005 32.3172 232.1 32.0688C232.2 31.8111 232.263 31.5409 232.288 31.2658C232.311 31.1999 232.324 31.1306 232.326 31.0607V30.8498C232.326 30.7316 232.32 30.6135 232.307 30.496C232.293 30.3843 232.275 30.2659 232.251 30.1407C232.228 29.9517 232.19 29.7648 232.138 29.5818C232.09 29.4091 232.014 29.2453 231.914 29.0965C231.626 28.6349 231.229 28.2507 230.759 27.9771C230.221 27.6466 229.658 27.3597 229.075 27.1192C228.674 26.9199 228.274 26.7394 227.876 26.5776C227.515 26.4351 227.165 26.2671 226.829 26.075C226.802 26.0752 226.777 26.0687 226.754 26.0562C226.726 26.0417 226.7 26.0227 226.678 25.9999C225.597 25.4216 224.585 24.7203 223.664 23.91C222.73 23.0925 222.125 21.9632 221.961 20.7326C221.945 20.6401 221.938 20.5766 221.925 20.4885C221.912 20.4004 221.895 20.3441 221.886 20.2502C221.878 20.1563 221.868 20.087 221.86 19.9989C221.853 19.9108 221.849 19.8357 221.849 19.7606C221.849 19.6161 221.849 19.4558 221.867 19.2926C221.886 19.1294 221.899 18.9633 221.924 18.7886C222.027 18.1813 222.209 17.5903 222.467 17.0308C222.713 16.4811 223.049 15.9756 223.459 15.5346C224.069 14.8621 224.824 14.3379 225.667 14.0022C226.55 13.632 227.485 13.4052 228.439 13.3306H229.226C229.324 13.3306 229.378 13.3392 229.534 13.3479C230.785 13.4271 232 13.7986 233.081 14.4326C234.185 15.047 235.035 16.0347 235.477 17.2186L232.588 18.7524C232.202 18.1433 231.699 17.6159 231.11 17.1998C230.518 16.8054 229.819 16.6036 229.108 16.6221H228.995C228.171 16.6272 227.381 16.9483 226.787 17.519C226.23 18.012 225.871 18.6897 225.776 19.4269V19.6508C225.776 19.7382 225.783 19.8256 225.795 19.9122C225.804 20.0016 225.823 20.0898 225.851 20.1751C225.904 20.5105 226.032 20.8298 226.225 21.1095C226.428 21.4119 226.681 21.6776 226.973 21.8952C227.476 22.3455 228.037 22.7277 228.64 23.0319C229.251 23.3439 229.869 23.6241 230.493 23.8725L230.605 23.9273L230.717 23.9837C231.19 24.183 231.658 24.3881 232.121 24.5989C232.571 24.8021 233.003 25.0437 233.412 25.3211C234.187 25.8437 234.833 26.535 235.302 27.3431C235.749 28.095 236.036 28.9308 236.146 29.7984C236.17 29.9428 236.189 30.0974 236.202 30.2461C236.215 30.3949 236.221 30.5451 236.221 30.6939C236.218 32.0465 235.821 33.3689 235.078 34.4996C234.321 35.6902 233.178 36.5853 231.84 37.0358C231.59 37.1109 231.328 37.1802 231.055 37.2596C230.784 37.3313 230.508 37.3796 230.23 37.4041C229.931 37.4532 229.642 37.4907 229.363 37.5167C229.089 37.5413 228.826 37.5528 228.578 37.5528C226.963 37.564 225.378 37.113 224.011 36.253C222.599 35.3641 221.592 33.9582 221.203 32.336L224.284 30.9625Z" fill="white"/>
<path d="M258.705 35.6219C256.651 36.8887 254.287 37.5616 251.874 37.5659C251.673 37.5659 251.481 37.5659 251.296 37.5486C251.111 37.5313 250.915 37.5168 250.718 37.4923C249.921 37.416 249.132 37.271 248.36 37.059C247.582 36.8453 246.83 36.5505 246.114 36.1794C244.12 35.1325 242.455 33.5538 241.303 31.6183C240.163 29.7474 239.561 27.5986 239.563 25.4079C239.563 25.0581 239.581 24.7086 239.619 24.3608C239.657 24.009 239.713 23.6595 239.788 23.3137C239.892 22.695 240.054 22.0876 240.273 21.4996C240.491 20.9086 240.741 20.33 241.023 19.7665C242.09 17.7796 243.708 16.1436 245.683 15.0552C247.597 13.9759 249.757 13.4088 251.955 13.4087C252.329 13.4087 252.714 13.4275 253.11 13.465C253.498 13.5015 253.883 13.5579 254.265 13.634C255.069 13.7848 255.858 14.0037 256.624 14.2883C257.387 14.5704 258.114 14.9408 258.79 15.3917C260.502 16.5011 261.89 18.0426 262.814 19.8604C263.757 21.6405 264.253 23.6232 264.258 25.6375C264.259 26.4032 264.184 27.1671 264.035 27.9181C263.883 28.67 263.67 29.4081 263.398 30.1249C262.484 32.4253 260.834 34.3583 258.705 35.6219ZM257.089 32.3622C258.117 31.5436 258.946 30.5036 259.516 29.3198C260.086 28.1359 260.381 26.8387 260.379 25.5249C260.391 24.3943 260.177 23.2728 259.749 22.2262C259.322 21.1795 258.689 20.2288 257.889 19.43C257.124 18.6031 256.194 17.9462 255.159 17.5016C254.124 17.057 253.007 16.8347 251.881 16.849H251.095C250.028 16.9483 248.993 17.2638 248.052 17.7763C247.11 18.2888 246.284 18.9876 245.621 19.83C244.228 21.4474 243.46 23.51 243.455 25.6447C243.455 25.7697 243.461 25.8945 243.474 26.0188C243.485 26.1445 243.504 26.2694 243.53 26.3929C243.529 26.4617 243.535 26.5304 243.549 26.598C243.561 26.6661 243.568 26.7352 243.568 26.8045C243.59 26.8718 243.609 26.9402 243.624 27.0096C243.635 27.0653 243.641 27.1218 243.641 27.1786C244.025 29.122 245.071 30.8724 246.599 32.1325C247.58 32.984 248.748 33.592 250.008 33.9069C251.268 34.2219 252.585 34.235 253.851 33.9451C255.05 33.7095 256.167 33.1637 257.089 32.3622Z" fill="white"/>
<path d="M268.684 13.8955H281.598V17.1481H272.427V22.8704H281.598V26.1243H272.427V37.0432H268.684V13.8955Z" fill="white"/>
<path d="M295.757 37.0432H291.976V17.1481H285.83V13.8955H301.862V17.1481H295.76L295.757 37.0432Z" fill="white"/>
</g>
<defs>
<clipPath id="clip0_42_9817">
<rect width="302" height="50" fill="white"/>
</clipPath>
</defs>
</svg>
