<svg width="810" height="120" viewBox="0 0 810 120" fill="none" xmlns="http://www.w3.org/2000/svg">
<g clip-path="url(#clip0_8635_11381)">
<path fill-rule="evenodd" clip-rule="evenodd" d="M741.225 31.6918L765.51 70.9168L789.78 31.6918L790.596 30.3718H810V89.8078H795.207V50.5798L770.676 88.5448L769.857 89.8078H761.157L760.341 88.5448L735.9 50.6998V89.8078H721.02V30.3718H740.4L741.225 31.6918ZM676.938 89.8078H676.857C671.307 89.8078 666.573 89.6208 662.655 89.2468C661.415 89.1348 660.179 88.9897 658.947 88.8117C656.914 88.5378 654.907 88.0963 652.947 87.4918H652.914C652.199 87.2608 651.498 86.9894 650.814 86.6788C650.158 86.3817 649.522 86.0431 648.909 85.6648C645.781 83.755 643.492 80.7327 642.501 77.2048V77.1658C642.345 76.6408 642.216 76.1068 642.111 75.5668C641.994 74.9668 641.895 74.3397 641.811 73.7277C641.29 68.9774 641.065 64.1991 641.139 59.4208C641.139 55.0428 641.239 51.3878 641.439 48.4558C641.535 46.1591 641.866 43.8783 642.426 41.6488V41.6278C642.64 40.9357 642.898 40.2583 643.2 39.5997C643.489 38.9515 643.823 38.324 644.199 37.7217C646.247 34.583 649.355 32.2844 652.956 31.2448C656.15 30.2982 659.435 29.6947 662.757 29.4448C666.757 29.0568 671.489 28.8628 676.953 28.8628C682.513 28.8628 687.253 29.0488 691.173 29.4208C694.469 29.6626 697.73 30.257 700.899 31.1938C701.606 31.4245 702.299 31.6959 702.975 32.0068C703.635 32.3054 704.274 32.6471 704.889 33.0298C708.024 34.9639 710.325 37.9975 711.342 41.5378C711.935 43.812 712.292 46.1413 712.407 48.4888C712.623 51.4248 712.731 55.0568 712.731 59.3848C712.731 63.7128 712.631 67.3428 712.431 70.2748C712.334 72.5749 712 74.8589 711.435 77.0908C710.745 79.5411 709.437 81.7733 707.637 83.5738C705.764 85.3804 703.488 86.717 700.998 87.4738H700.965C700.243 87.7058 699.472 87.9157 698.652 88.1037C697.832 88.2917 696.953 88.4638 696.015 88.6198C689.695 89.505 683.316 89.8962 676.935 89.7898L676.938 89.8078ZM676.938 75.6867C681.524 75.744 686.109 75.5437 690.672 75.0868C692.475 75.038 694.248 74.6204 695.883 73.8598C696.639 72.7484 697.083 71.4543 697.167 70.1128C697.692 66.5679 697.921 62.9856 697.851 59.4028C697.917 55.8 697.687 52.1979 697.164 48.6328C697.082 47.2889 696.65 45.9898 695.91 44.8648C694.272 44.1194 692.501 43.7113 690.702 43.6648C686.127 43.2073 681.53 43.007 676.932 43.0648C672.331 43.0061 667.731 43.2064 663.153 43.6648C661.357 43.711 659.589 44.1255 657.96 44.8828C657.888 44.9555 657.825 45.0372 657.774 45.1258C657.61 45.4117 657.474 45.7132 657.369 46.0258C656.25 50.3947 655.798 54.9077 656.028 59.4118C655.96 62.9847 656.189 66.557 656.715 70.0918C656.801 71.4391 657.245 72.739 658.002 73.8568C658.131 73.9507 658.272 74.0264 658.422 74.0818C658.847 74.251 659.284 74.3884 659.73 74.4928C665.406 75.4965 671.172 75.8987 676.932 75.6928L676.938 75.6867ZM582.672 59.3998C582.672 67.9138 583.298 72.7338 584.55 73.8598C584.666 73.9531 584.794 74.0298 584.931 74.0878C585.29 74.2487 585.661 74.3811 586.041 74.4838C590.927 75.4799 595.915 75.8828 600.897 75.6838C605.67 75.6838 609.432 75.5848 612.162 75.3838C613.692 75.3524 615.214 75.141 616.695 74.7538C616.817 74.6784 616.932 74.591 617.037 74.4928C617.194 74.3463 617.334 74.1822 617.454 74.0038C618.619 71.6851 619.117 69.0888 618.894 66.5038V63.7378H633.774V66.5308C633.875 70.5635 633.37 74.5885 632.274 78.4708C632.097 79.0288 631.911 79.5448 631.719 80.0098C630.831 82.4363 629.192 84.5169 627.042 85.9498H627.024C626.314 86.3875 625.566 86.7601 624.789 87.0628C623.924 87.4038 623.04 87.6923 622.14 87.9268C615.158 89.391 608.027 90.0175 600.897 89.7928C595.339 89.884 589.785 89.4642 584.304 88.5388C580.574 88.0443 577.04 86.5749 574.059 84.2788C571.506 81.6665 569.807 78.3392 569.19 74.7388C568.147 69.6896 567.673 64.5395 567.777 59.3848C567.675 54.2147 568.146 49.0491 569.181 43.9828C569.786 40.3715 571.465 37.0262 573.999 34.3828C576.973 32.0598 580.515 30.5754 584.256 30.0838C589.752 29.153 595.323 28.7332 600.897 28.8298H600.957C606.357 28.7625 611.756 29.0531 617.118 29.6998C617.928 29.8138 618.618 29.9158 619.146 29.9998C621.932 30.3761 624.623 31.2694 627.081 32.6338L627.144 32.6668C628.38 33.4735 629.438 34.5252 630.252 35.7568C631.137 37.1006 631.824 38.5645 632.292 40.1037C633.389 44.0063 633.895 48.0513 633.792 52.1037V54.8728H618.912V52.1518C618.912 47.4778 618.369 44.8678 617.283 44.3218C615.68 43.7745 614.005 43.4711 612.312 43.4218C609.538 43.1718 605.738 43.0478 600.912 43.0498C591.312 43.0498 585.854 43.6497 584.538 44.8497C583.825 45.9981 583.413 47.3073 583.338 48.6568C582.841 52.2214 582.624 55.8193 582.687 59.4178L582.672 59.3998ZM505.986 30.3718H560.355V44.4928H518.1V52.6498H558.9V66.7708H518.1V75.6808H560.346V89.8018H503.226V30.3748H505.977L505.986 30.3718ZM444.423 30.3718H456.465V75.6718H496.581V89.7718H441.681V30.3718H444.432H444.423ZM379.371 30.3718H433.74V44.4928H391.479V52.6498H432.279V66.7708H391.5V75.6808H433.74V89.8018H376.62V30.3748L379.371 30.3718ZM310.812 30.3718H369.765V44.4928H346.386V89.7928H331.5V44.4928H308.055V30.3718H310.8M181.677 70.2718C181.622 71.432 181.798 72.5915 182.196 73.6828C182.35 74.0936 182.656 74.4296 183.051 74.6218C184.713 75.0871 186.426 75.3421 188.151 75.3808C190.983 75.5808 194.809 75.6808 199.629 75.6808H199.752C204.474 75.6808 208.304 75.5728 211.242 75.3568C211.674 75.3268 212.106 75.2908 212.538 75.2548C213.812 75.1918 215.073 74.9743 216.294 74.6068C216.672 74.4059 216.961 74.0709 217.104 73.6678C217.503 72.5715 217.68 71.407 217.626 70.2418V29.6068H232.5V70.2988C232.589 73.6072 232.184 76.9104 231.3 80.0998C231.141 80.5948 231 81.0148 230.847 81.3598C230.121 83.3394 228.738 85.0103 226.929 86.0938C223.748 87.722 220.272 88.6943 216.708 88.9528C211.037 89.5823 205.332 89.8648 199.626 89.7988H199.545C193.937 89.8575 188.329 89.6221 182.745 89.0938C181.419 88.9538 180.099 88.7648 178.785 88.5268C176.765 88.23 174.807 87.6047 172.989 86.6758C170.642 85.2143 168.918 82.936 168.15 80.2798C167.164 77.0372 166.708 73.6567 166.8 70.2687V29.6068H181.683V70.2658L181.677 70.2718ZM240.369 41.7328V30.3748H301.242V42.5997L300.249 43.4337L261.9 75.6867H301.242V89.8107H238.617V77.5768L239.619 76.7398L278.43 44.4988H240.381V41.7298M0 73.4998C2.91679 72.6433 5.47775 70.8651 7.2995 68.4315C9.12125 65.9979 10.1058 63.0397 10.1058 59.9998C10.1058 56.9598 9.12125 54.0016 7.2995 51.568C5.47775 49.1344 2.91679 47.3563 0 46.4998C2.08347 48.08 3.77294 50.1211 4.93607 52.4632C6.09919 54.8053 6.70441 57.3848 6.70441 59.9998C6.70441 62.6147 6.09919 65.1942 4.93607 67.5363C3.77294 69.8784 2.08347 71.9195 0 73.4998ZM4.97699 80.6578C7.79806 80.6581 10.5894 80.0809 13.1789 78.9617C15.7685 77.8424 18.1015 76.2049 20.0342 74.1499C21.967 72.0949 23.4585 69.666 24.417 67.0127C25.3755 64.3595 25.7807 61.5381 25.6076 58.7224C25.4344 55.9066 24.6867 53.1561 23.4103 50.6403C22.134 48.1245 20.356 45.8966 18.186 44.0938C16.0161 42.2911 13.5 40.9518 10.7929 40.1582C8.08571 39.3647 5.24479 39.1338 2.44501 39.4798C7.44511 40.1036 12.0451 42.5323 15.3803 46.3094C18.7155 50.0866 20.5562 54.9519 20.5562 59.9908C20.5562 65.0296 18.7155 69.895 15.3803 73.6721C12.0451 77.4492 7.44511 79.878 2.44501 80.5018C3.28504 80.6053 4.1306 80.6575 4.97699 80.6578ZM12.213 92.6218C20.8673 92.6218 29.1671 89.1839 35.2866 83.0644C41.4061 76.9449 44.844 68.645 44.844 59.9908C44.844 51.3365 41.4061 43.0367 35.2866 36.9172C29.1671 30.7977 20.8673 27.3598 12.213 27.3598C10.877 27.3589 9.54235 27.4431 8.21704 27.6118C16.1073 28.601 23.3647 32.4371 28.6263 38.3995C33.8878 44.3619 36.7913 52.0403 36.7913 59.9923C36.7913 67.9442 33.8878 75.6226 28.6263 81.585C23.3647 87.5474 16.1073 91.3835 8.21704 92.3728C9.54267 92.5373 10.8772 92.6225 12.213 92.6218ZM58.5 120C66.6752 119.976 74.7594 118.283 82.2565 115.023C89.7535 111.762 96.5052 107.004 102.097 101.041C107.689 95.0773 112.003 88.0338 114.775 80.3428C117.547 72.6518 118.718 64.4755 118.216 56.3157C117.714 48.1559 115.55 40.1847 111.856 32.8915C108.162 25.5982 103.017 19.1368 96.7364 13.9036C90.4555 8.67046 83.1715 4.77605 75.3314 2.45941C67.4913 0.142774 59.2604 -0.547224 51.144 0.431761C65.6586 2.24903 79.01 9.30403 88.6897 20.2712C98.3694 31.2384 103.711 45.3629 103.711 59.9908C103.711 74.6187 98.3694 88.7431 88.6897 99.7103C79.01 110.677 65.6586 117.732 51.144 119.55C53.5847 119.848 56.0412 119.998 58.5 120ZM22.659 103.863C28.6488 103.865 34.5757 102.641 40.0745 100.266C45.5732 97.8912 50.5275 94.4153 54.6318 90.0527C58.7361 85.6901 61.9036 80.5332 63.9391 74.8999C65.9747 69.2666 66.8351 63.2761 66.4674 57.2976C66.0997 51.3191 64.5117 45.4792 61.8012 40.1378C59.0907 34.7964 55.3151 30.0665 50.7071 26.2398C46.0991 22.413 40.7563 19.5704 35.0079 17.887C29.2595 16.2036 23.2273 15.7152 17.283 16.4518C27.8947 17.7786 37.6566 22.9352 44.734 30.9527C51.8115 38.9701 55.7173 49.2964 55.7173 59.9908C55.7173 70.6851 51.8115 81.0114 44.734 89.0288C37.6566 97.0463 27.8947 102.203 17.283 103.53C19.0664 103.751 20.8619 103.862 22.659 103.863ZM37.332 113.619C51.555 113.619 65.1955 107.969 75.2527 97.9115C85.3099 87.8543 90.96 74.2138 90.96 59.9908C90.96 45.7677 85.3099 32.1272 75.2527 22.07C65.1955 12.0128 51.555 6.36275 37.332 6.36275C35.1348 6.36539 32.9397 6.50165 30.759 6.77076C43.7291 8.39462 55.6599 14.6989 64.3097 24.4991C72.9594 34.2993 77.7327 46.9208 77.7327 59.9923C77.7327 73.0637 72.9594 85.6852 64.3097 95.4854C55.6599 105.286 43.7291 111.59 30.759 113.214C32.9397 113.482 35.1348 113.618 37.332 113.619Z" fill="white"/>
</g>
<defs>
<clipPath id="clip0_8635_11381">
<rect width="810" height="120" fill="white"/>
</clipPath>
</defs>
</svg>
