<?xml version="1.0" encoding="UTF-8"?>
<!DOCTYPE svg PUBLIC "-//W3C//DTD SVG 1.1//EN" "http://www.w3.org/Graphics/SVG/1.1/DTD/svg11.dtd">
<!-- Creator: CorelDRAW -->
<svg xmlns="http://www.w3.org/2000/svg" xml:space="preserve" width="50.9472mm" height="27.3889mm" version="1.1" style="shape-rendering:geometricPrecision; text-rendering:geometricPrecision; image-rendering:optimizeQuality; fill-rule:evenodd; clip-rule:evenodd"
viewBox="0 0 320.32 172.2"
 xmlns:xlink="http://www.w3.org/1999/xlink"
 xmlns:xodm="http://www.corel.com/coreldraw/odm/2003">
 <defs>
  <style type="text/css">
   <![CDATA[
    .fil1 {fill:#2B2A29;fill-rule:nonzero}
    .fil2 {fill:url(#id0)}
    .fil0 {fill:url(#id1)}
   ]]>
  </style>
  <linearGradient id="id0" gradientUnits="userSpaceOnUse" x1="27.47" y1="56.01" x2="27.47" y2="210.82">
   <stop offset="0" style="stop-opacity:1; stop-color:#A3F5B7"/>
   <stop offset="1" style="stop-opacity:1; stop-color:#41AAD2"/>
  </linearGradient>
  <linearGradient id="id1" gradientUnits="userSpaceOnUse" xlink:href="#id0" x1="89.19" y1="0" x2="89.19" y2="231.37">
  </linearGradient>
 </defs>
 <g id="Слой_x0020_1">
  <metadata id="CorelCorpID_0Corel-Layer"/>
  <g id="_2633790565936">
   <path class="fil0" d="M44.03 0c-13.57,0 -24.6,11.04 -24.6,24.6 0,13.57 11.04,24.61 24.6,24.61l3.67 0c9.92,0 18,8.07 18,18l0 80.39c0,13.57 11.04,24.6 24.66,24.6 12.84,0 23.4,-9.89 24.5,-22.46 1.48,-1.01 2.45,-2.71 2.45,-4.63 0,-3.1 -2.51,-5.62 -5.62,-5.62 -3.1,0 -5.61,2.52 -5.61,5.62 0,1.8 0.86,3.38 2.18,4.41 -0.96,9.02 -8.62,16.08 -17.95,16.08 -9.92,0 -18,-8.07 -18,-18l0 -80.39c0,-13.57 -11.04,-24.6 -24.61,-24.6l-3.67 0c-9.93,0 -18,-8.07 -18,-18 0,-9.92 8.08,-18 18,-18l92.49 0c9.92,0 18,8.08 18,18 0,9.93 -8.07,18 -18,18l-3.56 0c-13.57,0 -24.6,11.04 -24.6,24.6l0 44.42 0.02 5.48c0,3.92 -3.19,7.11 -7.11,7.11 -3.92,0 -7.1,-3.19 -7.1,-7.11l0 -56.14 0.08 -15.21c0,-13.57 -11.04,-24.6 -24.61,-24.6l-13.97 0c-1.02,-1.4 -2.66,-2.31 -4.52,-2.31 -3.1,0 -5.61,2.51 -5.61,5.61 0,3.1 2.51,5.61 5.61,5.61 1.86,0 3.5,-0.92 4.52,-2.31l13.97 0c9.93,0 18,8.07 18,17.98l-0.08 15.21 0 56.16c0,7.56 6.15,13.71 13.71,13.71 7.56,0 13.71,-6.15 13.71,-13.72l-0.01 -49.9c0,-9.92 8.07,-18 18,-18l3.56 0c13.57,0 24.6,-11.04 24.6,-24.61 0,-13.57 -11.04,-24.6 -24.6,-24.6l-92.49 0z"/>
   <path class="fil1" d="M137.29 154.57l5.78 -3.47c4.07,7.52 8.78,11.28 14.12,11.28 2.29,0 4.44,-0.54 6.44,-1.6 2.01,-1.06 3.54,-2.5 4.58,-4.28 1.06,-1.78 1.58,-3.68 1.58,-5.69 0,-2.27 -0.77,-4.5 -2.32,-6.7 -2.13,-3.02 -6.02,-6.66 -11.69,-10.91 -5.69,-4.3 -9.22,-7.39 -10.61,-9.3 -2.42,-3.21 -3.62,-6.68 -3.62,-10.41 0,-2.95 0.71,-5.65 2.13,-8.09 1.42,-2.43 3.43,-4.34 6.02,-5.75 2.59,-1.41 5.39,-2.1 8.42,-2.1 3.22,0 6.24,0.79 9.03,2.38 2.8,1.58 5.76,4.5 8.89,8.75l-5.56 4.22c-2.57,-3.4 -4.77,-5.64 -6.59,-6.71 -1.82,-1.09 -3.79,-1.63 -5.92,-1.63 -2.76,0 -5.02,0.84 -6.78,2.5 -1.75,1.67 -2.64,3.71 -2.64,6.16 0,1.47 0.32,2.91 0.93,4.3 0.62,1.39 1.75,2.89 3.4,4.53 0.88,0.85 3.84,3.13 8.83,6.79 5.91,4.36 9.97,8.23 12.16,11.61 2.2,3.4 3.3,6.81 3.3,10.23 0,4.93 -1.88,9.22 -5.62,12.86 -3.76,3.65 -8.32,5.46 -13.69,5.46 -4.14,0 -7.9,-1.11 -11.26,-3.32 -3.36,-2.21 -6.47,-5.92 -9.32,-11.12zm53.16 -57.01l6.44 0 0 39.77 23.5 -20.34 9.38 0 -27.7 23.97 29.31 26.34 -9.18 0 -25.32 -22.76 0 22.76 -6.44 0 0 -69.74zm49.83 -1.23c1.47,0 2.72,0.52 3.76,1.58 1.04,1.04 1.56,2.32 1.56,3.79 0,1.45 -0.52,2.72 -1.56,3.76 -1.04,1.06 -2.29,1.58 -3.76,1.58 -1.45,0 -2.68,-0.52 -3.73,-1.58 -1.04,-1.04 -1.56,-2.31 -1.56,-3.76 0,-1.47 0.52,-2.75 1.56,-3.79 1.04,-1.06 2.27,-1.58 3.73,-1.58zm-3.21 20.66l6.44 0 0 50.32 -6.44 0 0 -50.32zm18.97 -19.43l6.44 0 0 69.74 -6.44 0 0 -69.74zm18.97 0l6.44 0 0 69.74 -6.44 0 0 -69.74zm45.31 24.8l-4.17 4.3c-3.46,-3.35 -6.85,-5.02 -10.15,-5.02 -2.1,0 -3.9,0.69 -5.4,2.08 -1.5,1.39 -2.26,3.02 -2.26,4.88 0,1.64 0.62,3.21 1.85,4.69 1.23,1.52 3.84,3.28 7.79,5.32 4.8,2.51 8.07,4.93 9.81,7.25 1.69,2.35 2.54,4.99 2.54,7.93 0,4.14 -1.45,7.66 -4.36,10.53 -2.91,2.87 -6.54,4.31 -10.9,4.31 -2.91,0 -5.67,-0.63 -8.32,-1.9 -2.64,-1.26 -4.82,-3 -6.55,-5.23l4.07 -4.63c3.3,3.73 6.82,5.59 10.53,5.59 2.59,0 4.8,-0.84 6.63,-2.51 1.82,-1.67 2.73,-3.63 2.73,-5.89 0,-1.86 -0.6,-3.52 -1.8,-4.97 -1.22,-1.42 -3.93,-3.22 -8.17,-5.39 -4.55,-2.34 -7.64,-4.66 -9.27,-6.93 -1.64,-2.27 -2.46,-4.88 -2.46,-7.8 0,-3.82 1.31,-7 3.92,-9.52 2.62,-2.53 5.92,-3.79 9.92,-3.79 4.64,0 9.32,2.23 14.02,6.7z"/>
   <path class="fil2" d="M42.49 69.4c0,-3.66 2.99,-6.65 6.65,-6.65 3.66,0 6.65,2.99 6.65,6.65 -0.03,2.42 -1.24,4.52 -3.33,5.76l0 86.46c-0.06,5.36 -4.25,9.56 -9.61,9.61l-12.42 0c-5.36,-0.06 -9.56,-4.25 -9.61,-9.61l0 -79.08c0,-1.63 -1.33,-2.96 -2.96,-2.96l-8.25 0c-5.36,-0.06 -9.56,-4.25 -9.61,-9.61l0 -4.35c0.06,-5.36 4.25,-9.56 9.61,-9.61l21.04 0c5.36,0.06 9.56,4.25 9.61,9.61l0 80.41c1.98,1.15 3.33,3.3 3.33,5.76 0,3.66 -2.99,6.65 -6.65,6.65 -3.66,0 -6.65,-2.99 -6.65,-6.65 0,-2.45 1.34,-4.6 3.33,-5.76l0 -80.41c0,-1.63 -1.33,-2.96 -2.96,-2.96l-21.04 0c-1.63,0 -2.96,1.33 -2.96,2.96l0 4.35c0,1.63 1.33,2.96 2.96,2.96l8.25 0c5.36,0.06 9.56,4.25 9.61,9.61l0 79.08c0,1.63 1.33,2.96 2.96,2.96l12.42 0c1.63,0 2.96,-1.33 2.96,-2.96l0 -86.46c-2.08,-1.23 -3.3,-3.34 -3.33,-5.76z"/>
  </g>
 </g>
</svg>
